# This file uses meters as units for non-parametric coordinates.

mtllib irisBelt.mtl
g default
v -0.867409 -15.564051 17.744358
v -4.269282 -15.913894 17.607986
v -4.290454 -21.434645 17.491755
v -0.342936 -20.908712 17.704041
v 4.250303 -14.678056 17.573027
v 4.609163 -19.853378 17.431463
v 0.759936 -19.350046 -15.543365
v 0.568635 -12.420427 -10.758391
v 8.551870 -11.413772 -10.746695
v 10.037116 -18.149561 -15.106495
v -8.360806 -19.789560 -16.308979
v -8.040505 -13.611482 -12.073498
v -17.122885 -21.737148 -13.299488
v -16.020063 -15.512472 -10.401132
v -20.218529 -17.678671 -5.415062
v -21.712780 -23.924971 -6.504200
v -23.795601 -24.814781 1.137153
v -22.197742 -18.662804 0.977746
v -19.569145 -23.703398 9.566667
v -18.918112 -17.926655 9.553151
v -10.643833 -22.464945 15.253773
v -10.462304 -16.540962 15.963201
v 9.419108 -13.097946 16.640892
v 10.607113 -19.244329 15.720569
v 17.349306 -17.448097 11.278388
v 15.457698 -11.258406 12.690378
v 20.993656 -16.345810 4.879420
v 18.865047 -10.348836 5.682094
v 18.926489 -10.141413 -1.929018
v 21.164051 -17.084515 -2.418107
v 15.370882 -11.304206 -7.977453
v 17.107449 -18.010818 -10.778748
v -0.818032 -15.353263 19.619450
v -4.594543 -15.741633 19.468061
v -4.618046 -21.870367 19.339027
v -0.235800 -21.286514 19.574692
v 5.261657 -20.114960 19.272099
v 4.863277 -14.369697 19.429251
v 11.287374 -18.223507 -16.849161
v 0.988527 -19.556198 -17.334143
v 0.776159 -11.863442 -12.022215
v 9.638562 -10.745927 -12.009231
v -9.136653 -20.044115 -18.184071
v -8.781078 -13.185664 -13.482150
v -18.863670 -22.206184 -14.843155
v -17.639399 -15.296004 -11.625611
v -23.959036 -24.634945 -7.299523
v -22.300228 -17.700760 -6.090442
v -24.497406 -18.793272 1.006385
v -26.271233 -25.622747 1.183347
v -20.856600 -17.976053 10.526173
v -21.579330 -24.388969 10.541176
v -11.671103 -23.014130 16.854586
v -11.469582 -16.437759 17.642139
v 11.920142 -19.438839 17.372787
v 10.601307 -12.615574 18.394463
v 17.304907 -10.573451 14.008892
v 19.404831 -17.444794 12.441403
v 23.450521 -16.221115 5.337738
v 21.087496 -9.563713 6.228808
v 23.639683 -17.041170 -2.763442
v 21.155704 -9.333447 -2.220491
v 19.136339 -18.069485 -12.044813
v 17.208530 -10.624295 -8.935021
vt 0.043800 0.000000
vt 0.687115 0.000000
vt 0.748232 1.000000
vt 0.000000 0.911496
vt 0.000000 0.000000
vt 1.000000 0.000000
vt 1.000000 1.000000
vt 0.000000 1.000000
vt 0.000000 0.000000
vt 1.000000 0.000000
vt 1.000000 1.000000
vt 0.000000 1.000000
vt 0.000000 0.000000
vt 1.000000 0.000000
vt 1.000000 1.000000
vt 0.000000 1.000000
vt 0.000000 0.000000
vt 1.000000 0.000000
vt 1.000000 1.000000
vt 0.000000 1.000000
vt 0.000000 0.000000
vt 1.000000 0.000000
vt 1.000000 1.000000
vt 0.000000 1.000000
vt 0.000000 0.000000
vt 1.000000 0.000000
vt 1.000000 1.000000
vt 0.000000 1.000000
vt 0.000000 0.000000
vt 1.000000 0.000000
vt 1.000000 1.000000
vt 0.000000 1.000000
vt 0.000000 0.000000
vt 1.000000 0.000000
vt 1.000000 1.000000
vt 0.000000 1.000000
vt 0.000000 0.000000
vt 1.000000 0.000000
vt 1.000000 1.000000
vt 0.000000 1.000000
vt 0.000000 0.000000
vt 1.000000 0.000000
vt 1.000000 1.000000
vt 0.000000 1.000000
vt 0.000000 0.000000
vt 1.000000 0.000000
vt 1.000000 1.000000
vt 0.000000 1.000000
vt 0.000000 0.000000
vt 1.000000 0.000000
vt 1.000000 1.000000
vt 0.000000 1.000000
vt 0.000000 0.000000
vt 1.000000 0.000000
vt 1.000000 1.000000
vt 0.000000 1.000000
vt 0.000000 0.000000
vt 1.000000 0.000000
vt 1.000000 1.000000
vt 0.000000 1.000000
vt 0.000000 0.000000
vt 1.000000 0.000000
vt 1.000000 1.000000
vt 0.000000 1.000000
vt 0.043800 0.000000
vt 0.687115 0.000000
vt 0.748232 1.000000
vt 0.000000 0.911496
vt 0.000000 0.000000
vt 1.000000 0.000000
vt 1.000000 1.000000
vt 0.000000 1.000000
vt 0.000000 0.000000
vt 1.000000 0.000000
vt 1.000000 1.000000
vt 0.000000 1.000000
vt 0.000000 0.000000
vt 1.000000 0.000000
vt 1.000000 1.000000
vt 0.000000 1.000000
vt 0.000000 0.000000
vt 1.000000 0.000000
vt 1.000000 1.000000
vt 0.000000 1.000000
vt 0.000000 0.000000
vt 1.000000 0.000000
vt 1.000000 1.000000
vt 0.000000 1.000000
vt 0.000000 0.000000
vt 1.000000 0.000000
vt 1.000000 1.000000
vt 0.000000 1.000000
vt 0.000000 0.000000
vt 1.000000 0.000000
vt 1.000000 1.000000
vt 0.000000 1.000000
vt 0.000000 0.000000
vt 1.000000 0.000000
vt 1.000000 1.000000
vt 0.000000 1.000000
vt 0.000000 0.000000
vt 1.000000 0.000000
vt 1.000000 1.000000
vt 0.000000 1.000000
vt 0.000000 0.000000
vt 1.000000 0.000000
vt 1.000000 1.000000
vt 0.000000 1.000000
vt 0.000000 0.000000
vt 1.000000 0.000000
vt 1.000000 1.000000
vt 0.000000 1.000000
vt 0.000000 0.000000
vt 1.000000 0.000000
vt 1.000000 1.000000
vt 0.000000 1.000000
vt 0.000000 0.000000
vt 1.000000 0.000000
vt 1.000000 1.000000
vt 0.000000 1.000000
vt 0.000000 0.000000
vt 1.000000 0.000000
vt 1.000000 1.000000
vt 0.000000 1.000000
vt 0.000000 0.000000
vt 1.000000 0.000000
vt 1.000000 1.000000
vt 0.000000 1.000000
vt 0.043800 0.000000
vt 0.687115 0.000000
vt 0.748232 1.000000
vt 0.000000 0.911496
vt 1.000000 0.000000
vt 1.000000 1.000000
vt 0.000000 1.000000
vt 0.000000 0.000000
vt 0.000000 0.000000
vt 1.000000 0.000000
vt 1.000000 1.000000
vt 0.000000 1.000000
vt 0.000000 0.000000
vt 1.000000 0.000000
vt 1.000000 1.000000
vt 0.000000 1.000000
vt 0.000000 0.000000
vt 1.000000 0.000000
vt 1.000000 1.000000
vt 0.000000 1.000000
vt 1.000000 0.000000
vt 1.000000 1.000000
vt 0.000000 1.000000
vt 0.000000 0.000000
vt 0.000000 0.000000
vt 1.000000 0.000000
vt 1.000000 1.000000
vt 0.000000 1.000000
vt 0.000000 0.000000
vt 1.000000 0.000000
vt 1.000000 1.000000
vt 0.000000 1.000000
vt 0.000000 0.000000
vt 1.000000 0.000000
vt 1.000000 1.000000
vt 0.000000 1.000000
vt 0.000000 0.000000
vt 1.000000 0.000000
vt 1.000000 1.000000
vt 0.000000 1.000000
vt 1.000000 0.000000
vt 1.000000 1.000000
vt 0.000000 1.000000
vt 0.000000 0.000000
vt 0.000000 0.000000
vt 1.000000 0.000000
vt 1.000000 1.000000
vt 0.000000 1.000000
vt 0.000000 0.000000
vt 1.000000 0.000000
vt 1.000000 1.000000
vt 0.000000 1.000000
vt 1.000000 0.000000
vt 1.000000 1.000000
vt 0.000000 1.000000
vt 0.000000 0.000000
vt 1.000000 0.000000
vt 1.000000 1.000000
vt 0.000000 1.000000
vt 0.000000 0.000000
vt 1.000000 0.000000
vt 1.000000 1.000000
vt 0.000000 1.000000
vt 0.000000 0.000000
vn -0.045419 -0.016495 0.998832
vn -0.045419 -0.016495 0.998832
vn -0.045419 -0.016495 0.998832
vn -0.045419 -0.016495 0.998832
vn 0.046606 -0.013355 0.998824
vn 0.046606 -0.013355 0.998824
vn 0.046606 -0.013355 0.998824
vn 0.046606 -0.013355 0.998824
vn -0.048857 0.551341 -0.832848
vn -0.048857 0.551341 -0.832848
vn -0.048857 0.551341 -0.832848
vn -0.048857 0.551341 -0.832848
vn 0.044546 0.566049 -0.823167
vn 0.044546 0.566049 -0.823167
vn 0.044546 0.566049 -0.823167
vn 0.044546 0.566049 -0.823167
vn -0.337835 0.498103 -0.798599
vn -0.337835 0.498103 -0.798599
vn -0.337835 0.498103 -0.798599
vn -0.337835 0.498103 -0.798599
vn -0.811750 0.324334 -0.485665
vn -0.811750 0.324334 -0.485665
vn -0.811750 0.324334 -0.485665
vn -0.811750 0.324334 -0.485665
vn -0.938085 0.251796 -0.237897
vn -0.938085 0.251796 -0.237897
vn -0.938085 0.251796 -0.237897
vn -0.938085 0.251796 -0.237897
vn -0.907406 0.176599 0.381348
vn -0.907406 0.176599 0.381348
vn -0.907406 0.176599 0.381348
vn -0.907406 0.176599 0.381348
vn -0.570393 -0.008263 0.821330
vn -0.570393 -0.008263 0.821330
vn -0.570393 -0.008263 0.821330
vn -0.570393 -0.008263 0.821330
vn -0.287328 -0.063858 0.955701
vn -0.287328 -0.063858 0.955701
vn -0.287328 -0.063858 0.955701
vn -0.287328 -0.063858 0.955701
vn 0.240687 -0.057988 0.968869
vn 0.240687 -0.057988 0.968869
vn 0.240687 -0.057988 0.968869
vn 0.240687 -0.057988 0.968869
vn 0.552674 -0.019551 0.833168
vn 0.552674 -0.019551 0.833168
vn 0.552674 -0.019551 0.833168
vn 0.552674 -0.019551 0.833168
vn 0.855660 0.195163 0.479330
vn 0.855660 0.195163 0.479330
vn 0.855660 0.195163 0.479330
vn 0.855660 0.195163 0.479330
vn 0.947613 0.319404 0.003354
vn 0.947613 0.319404 0.003354
vn 0.947613 0.319404 0.003354
vn 0.947613 0.319404 0.003354
vn 0.806468 0.349731 -0.476757
vn 0.806468 0.349731 -0.476757
vn 0.806468 0.349730 -0.476757
vn 0.806468 0.349731 -0.476757
vn 0.385804 0.504096 -0.772685
vn 0.385804 0.504096 -0.772685
vn 0.385804 0.504096 -0.772685
vn 0.385804 0.504096 -0.772685
vn 0.045420 0.016495 -0.998832
vn 0.045420 0.016495 -0.998832
vn 0.045420 0.016495 -0.998832
vn 0.045420 0.016495 -0.998832
vn -0.046606 0.013355 -0.998824
vn -0.046606 0.013355 -0.998824
vn -0.046606 0.013355 -0.998824
vn -0.046606 0.013355 -0.998824
vn 0.048857 -0.551341 0.832848
vn 0.048857 -0.551341 0.832848
vn 0.048857 -0.551341 0.832848
vn 0.048857 -0.551341 0.832848
vn -0.044546 -0.566049 0.823167
vn -0.044546 -0.566049 0.823167
vn -0.044546 -0.566049 0.823167
vn -0.044546 -0.566049 0.823167
vn 0.337835 -0.498103 0.798599
vn 0.337835 -0.498103 0.798599
vn 0.337835 -0.498103 0.798599
vn 0.337835 -0.498103 0.798599
vn 0.811750 -0.324334 0.485665
vn 0.811750 -0.324334 0.485665
vn 0.811750 -0.324334 0.485665
vn 0.811750 -0.324334 0.485665
vn 0.938085 -0.251796 0.237897
vn 0.938085 -0.251796 0.237897
vn 0.938085 -0.251796 0.237897
vn 0.938085 -0.251796 0.237897
vn 0.907406 -0.176600 -0.381348
vn 0.907406 -0.176600 -0.381348
vn 0.907406 -0.176600 -0.381348
vn 0.907406 -0.176600 -0.381348
vn 0.570393 0.008263 -0.821330
vn 0.570393 0.008263 -0.821330
vn 0.570393 0.008263 -0.821330
vn 0.570393 0.008263 -0.821330
vn 0.287328 0.063858 -0.955701
vn 0.287328 0.063858 -0.955701
vn 0.287328 0.063858 -0.955701
vn 0.287328 0.063858 -0.955701
vn -0.240687 0.057988 -0.968869
vn -0.240687 0.057988 -0.968869
vn -0.240687 0.057988 -0.968869
vn -0.240687 0.057988 -0.968869
vn -0.552674 0.019551 -0.833168
vn -0.552674 0.019551 -0.833168
vn -0.552674 0.019551 -0.833168
vn -0.552674 0.019551 -0.833168
vn -0.855660 -0.195163 -0.479330
vn -0.855660 -0.195163 -0.479330
vn -0.855660 -0.195163 -0.479330
vn -0.855660 -0.195163 -0.479330
vn -0.947613 -0.319404 -0.003354
vn -0.947613 -0.319404 -0.003354
vn -0.947613 -0.319404 -0.003354
vn -0.947613 -0.319404 -0.003354
vn -0.806468 -0.349731 0.476757
vn -0.806468 -0.349731 0.476757
vn -0.806468 -0.349731 0.476757
vn -0.806468 -0.349731 0.476757
vn -0.385804 -0.504096 0.772685
vn -0.385804 -0.504096 0.772685
vn -0.385804 -0.504096 0.772685
vn -0.385804 -0.504096 0.772685
vn -0.097383 0.989299 -0.108647
vn -0.097383 0.989299 -0.108647
vn -0.097383 0.989299 -0.108647
vn -0.097383 0.989299 -0.108647
vn 0.140051 -0.968961 -0.203716
vn 0.140051 -0.968961 -0.203716
vn 0.140051 -0.968961 -0.203716
vn 0.140051 -0.968961 -0.203716
vn -0.173062 0.979242 -0.105524
vn -0.173062 0.979242 -0.105524
vn -0.173062 0.979242 -0.105524
vn -0.173062 0.979242 -0.105524
vn 0.193209 -0.959534 -0.204855
vn 0.193209 -0.959534 -0.204855
vn 0.193209 -0.959534 -0.204855
vn 0.193209 -0.959534 -0.204855
vn 0.121296 -0.984226 0.128786
vn 0.121296 -0.984226 0.128786
vn 0.121296 -0.984226 0.128786
vn 0.121296 -0.984226 0.128786
vn -0.116040 0.915784 0.384545
vn -0.116040 0.915784 0.384545
vn -0.116040 0.915784 0.384545
vn -0.116040 0.915784 0.384545
vn 0.037818 -0.992168 0.119044
vn 0.037818 -0.992168 0.119044
vn 0.037818 -0.992168 0.119044
vn 0.037818 -0.992168 0.119044
vn -0.182659 0.910397 0.371231
vn -0.182659 0.910397 0.371231
vn -0.182659 0.910397 0.371231
vn -0.182659 0.910397 0.371231
vn 0.229017 -0.972708 0.037291
vn 0.229017 -0.972708 0.037291
vn 0.229017 -0.972708 0.037291
vn 0.229017 -0.972708 0.037291
vn -0.145436 0.923271 0.355553
vn -0.145436 0.923272 0.355553
vn -0.145436 0.923272 0.355553
vn -0.145436 0.923272 0.355553
vn -0.112190 0.942445 0.314977
vn -0.112190 0.942445 0.314977
vn -0.112190 0.942445 0.314977
vn -0.112190 0.942445 0.314977
vn 0.326762 -0.941506 -0.082416
vn 0.326763 -0.941506 -0.082416
vn 0.326762 -0.941506 -0.082416
vn 0.326762 -0.941506 -0.082416
vn -0.054439 0.989289 0.135440
vn -0.054439 0.989289 0.135440
vn -0.054439 0.989289 0.135440
vn -0.054439 0.989289 0.135440
vn 0.309712 -0.950468 -0.026260
vn 0.309712 -0.950468 -0.026260
vn 0.309712 -0.950468 -0.026260
vn 0.309712 -0.950468 -0.026260
vn -0.057317 0.996328 -0.063608
vn -0.057317 0.996328 -0.063608
vn -0.057317 0.996328 -0.063608
vn -0.057317 0.996328 -0.063608
vn 0.309618 -0.950390 -0.029935
vn 0.309618 -0.950390 -0.029935
vn 0.309618 -0.950390 -0.029935
vn 0.309618 -0.950390 -0.029935
vn 0.242186 -0.954834 -0.172156
vn 0.242186 -0.954834 -0.172156
vn 0.242186 -0.954834 -0.172156
vn 0.242186 -0.954834 -0.172156
vn -0.079876 0.990846 -0.108829
vn -0.079876 0.990846 -0.108829
vn -0.079876 0.990846 -0.108829
vn -0.079876 0.990846 -0.108829
vn -0.072660 0.991861 -0.104561
vn -0.072660 0.991861 -0.104561
vn -0.072660 0.991861 -0.104561
vn -0.072660 0.991861 -0.104561
vn 0.220967 -0.957262 -0.186608
vn 0.220967 -0.957262 -0.186608
vn 0.220967 -0.957262 -0.186608
vn 0.220967 -0.957262 -0.186608
vn -0.301483 0.951673 -0.058536
vn -0.301483 0.951673 -0.058536
vn -0.301483 0.951673 -0.058536
vn -0.301483 0.951673 -0.058536
vn 0.054610 -0.985696 -0.159442
vn 0.054610 -0.985696 -0.159442
vn 0.054610 -0.985696 -0.159442
vn 0.054610 -0.985696 -0.159442
vn -0.318403 0.946848 -0.045802
vn -0.318403 0.946848 -0.045802
vn -0.318403 0.946848 -0.045802
vn -0.318403 0.946848 -0.045802
vn 0.120271 -0.970317 -0.209811
vn 0.120271 -0.970317 -0.209811
vn 0.120271 -0.970317 -0.209811
vn 0.120271 -0.970317 -0.209811
vn 0.074102 -0.988981 -0.128159
vn 0.074102 -0.988981 -0.128159
vn 0.074102 -0.988981 -0.128159
vn 0.074102 -0.988981 -0.128159
vn -0.325127 0.945007 -0.035426
vn -0.325127 0.945007 -0.035426
vn -0.325127 0.945007 -0.035426
vn -0.325127 0.945007 -0.035426
vn -0.338014 0.940862 0.022912
vn -0.338014 0.940862 0.022912
vn -0.338014 0.940862 0.022912
vn -0.338014 0.940862 0.022912
vn 0.031553 -0.994346 0.101391
vn 0.031553 -0.994346 0.101391
vn 0.031553 -0.994346 0.101391
vn 0.031553 -0.994346 0.101391
vn -0.338594 0.940757 0.018186
vn -0.338594 0.940757 0.018186
vn -0.338594 0.940757 0.018186
vn -0.338594 0.940757 0.018186
vn 0.030719 -0.994972 0.095332
vn 0.030719 -0.994972 0.095332
vn 0.030719 -0.994972 0.095332
vn 0.030719 -0.994972 0.095332
vn -0.157832 0.922541 0.352148
vn -0.157832 0.922541 0.352148
vn -0.157832 0.922541 0.352148
vn -0.157832 0.922541 0.352148
vn -0.004409 -0.999220 0.039237
vn -0.004409 -0.999220 0.039237
vn -0.004409 -0.999220 0.039237
vn -0.004409 -0.999220 0.039237
s off
g polySurface4
usemtl initialShadingGroup
f 33/129/1 34/130/2 35/131/3 36/132/4
f 37/136/5 38/133/6 33/134/7 36/135/8
f 39/137/9 40/138/10 41/139/11 42/140/12
f 40/141/13 43/142/14 44/143/15 41/144/16
f 43/145/17 45/146/18 46/147/19 44/148/20
f 47/152/21 48/149/22 46/150/23 45/151/24
f 49/153/25 48/154/26 47/155/27 50/156/28
f 51/157/29 49/158/30 50/159/31 52/160/32
f 52/161/33 53/162/34 54/163/35 51/164/36
f 34/165/37 54/166/38 53/167/39 35/168/40
f 55/172/41 56/169/42 38/170/43 37/171/44
f 57/173/45 56/174/46 55/175/47 58/176/48
f 58/177/49 59/178/50 60/179/51 57/180/52
f 61/184/53 62/181/54 60/182/55 59/183/56
f 63/188/57 64/185/58 62/186/59 61/187/60
f 39/192/61 42/189/62 64/190/63 63/191/64
f 1/65/65 4/68/66 3/67/67 2/66/68
f 6/69/69 4/72/70 1/71/71 5/70/72
f 10/73/73 9/76/74 8/75/75 7/74/76
f 7/77/77 8/80/78 12/79/79 11/78/80
f 11/81/81 12/84/82 14/83/83 13/82/84
f 16/85/85 13/88/86 14/87/87 15/86/88
f 18/89/89 17/92/90 16/91/91 15/90/92
f 20/93/93 19/96/94 17/95/95 18/94/96
f 19/97/97 20/100/98 22/99/99 21/98/100
f 2/101/101 3/104/102 21/103/103 22/102/104
f 24/105/105 6/108/106 5/107/107 23/106/108
f 26/109/109 25/112/110 24/111/111 23/110/112
f 25/113/113 26/116/114 28/115/115 27/114/116
f 30/117/117 27/120/118 28/119/119 29/118/120
f 32/121/121 30/124/122 29/123/123 31/122/124
f 10/125/125 32/128/126 31/127/127 9/126/128
f 1/1/129 2/2/130 34/130/131 33/129/132
f 3/3/133 4/4/134 36/132/135 35/131/136
f 5/6/137 1/7/138 33/134/139 38/133/140
f 4/8/141 6/5/142 37/136/143 36/135/144
f 10/9/145 7/10/146 40/138/147 39/137/148
f 8/11/149 9/12/150 42/140/151 41/139/152
f 7/13/153 11/14/154 43/142/155 40/141/156
f 12/15/157 8/16/158 41/144/159 44/143/160
f 11/17/161 13/18/162 45/146/163 43/145/164
f 14/19/165 12/20/166 44/148/167 46/147/168
f 15/22/169 14/23/170 46/150/171 48/149/172
f 13/24/173 16/21/174 47/152/175 45/151/176
f 18/25/177 15/26/178 48/154/179 49/153/180
f 16/27/181 17/28/182 50/156/183 47/155/184
f 20/29/185 18/30/186 49/158/187 51/157/188
f 17/31/189 19/32/190 52/160/191 50/159/192
f 19/33/193 21/34/194 53/162/195 52/161/196
f 22/35/197 20/36/198 51/164/199 54/163/200
f 2/37/201 22/38/202 54/166/203 34/165/204
f 21/39/205 3/40/206 35/168/207 53/167/208
f 23/42/209 5/43/210 38/170/211 56/169/212
f 6/44/213 24/41/214 55/172/215 37/171/216
f 26/45/217 23/46/218 56/174/219 57/173/220
f 24/47/221 25/48/222 58/176/223 55/175/224
f 25/49/225 27/50/226 59/178/227 58/177/228
f 28/51/229 26/52/230 57/180/231 60/179/232
f 29/54/233 28/55/234 60/182/235 62/181/236
f 27/56/237 30/53/238 61/184/239 59/183/240
f 31/58/241 29/59/242 62/186/243 64/185/244
f 30/60/245 32/57/246 63/188/247 61/187/248
f 9/62/249 31/63/250 64/190/251 42/189/252
f 32/64/253 10/61/254 39/192/255 63/191/256
