# This file uses meters as units for non-parametric coordinates.

mtllib IrisEars.mtl
g default
v -12.011847 82.063301 1.034312
v -11.904588 78.265411 2.202512
v -11.968921 78.925514 -3.795797
v -12.089379 81.542580 -2.023608
v -11.393684 76.138443 -3.641021
v -11.288673 74.984978 1.507018
v -10.656403 72.326622 -2.992430
v -10.716002 71.721481 -0.142751
v -13.592571 84.207603 -3.274831
v -15.132930 81.445496 -3.758304
v -10.635220 81.270195 -5.160511
v -11.467906 83.506866 -4.207901
v -15.098551 78.724319 -4.237957
v -11.139400 79.013626 -5.348876
v -14.369740 76.023933 -4.958300
v -12.160640 76.128830 -5.497231
v -15.146079 83.927765 -8.592746
v -15.589813 82.803162 -8.610236
v -14.248367 83.024078 -9.761878
v -14.517870 83.802628 -9.247673
v -15.495821 81.792603 -8.856363
v -14.321660 82.152031 -9.815109
v -15.201027 80.834053 -9.287384
v -14.530603 81.013306 -9.795790
v -15.319505 84.693581 -11.322762
v -15.478647 84.290253 -11.329034
v -14.997548 84.369484 -11.742063
v -15.094203 84.648705 -11.557648
v -15.444938 83.927826 -11.417307
v -15.023833 84.056732 -11.761153
v -15.339211 83.584045 -11.571889
v -15.098769 83.648338 -11.754225
v 12.011847 82.063301 1.034312
v 11.904588 78.265411 2.202512
v 11.968921 78.925514 -3.795797
v 12.089379 81.542580 -2.023608
v 11.393684 76.138443 -3.641021
v 11.288673 74.984978 1.507018
v 10.656403 72.326622 -2.992430
v 10.716002 71.721481 -0.142751
v 13.592571 84.207603 -3.274831
v 15.132930 81.445496 -3.758304
v 10.635220 81.270195 -5.160511
v 11.467906 83.506866 -4.207901
v 15.098551 78.724319 -4.237957
v 11.139400 79.013626 -5.348876
v 14.369740 76.023933 -4.958300
v 12.160640 76.128830 -5.497231
v 15.146079 83.927765 -8.592746
v 15.589813 82.803162 -8.610236
v 14.248367 83.024078 -9.761878
v 14.517870 83.802628 -9.247673
v 15.495821 81.792603 -8.856363
v 14.321660 82.152031 -9.815109
v 15.201027 80.834053 -9.287384
v 14.530603 81.013306 -9.795790
v 15.319505 84.693581 -11.322762
v 15.478647 84.290253 -11.329034
v 14.997548 84.369484 -11.742063
v 15.094203 84.648705 -11.557648
v 15.444938 83.927826 -11.417307
v 15.023833 84.056732 -11.761153
v 15.339211 83.584045 -11.571889
v 15.098769 83.648338 -11.754225
vt 0.072819 0.000000
vt 0.790593 0.000000
vt 0.358065 1.000000
vt 0.000000 0.555555
vt 0.000000 0.000000
vt 1.000000 0.000000
vt 1.000000 1.000000
vt 0.000000 1.000000
vt 0.000000 0.000000
vt 1.000000 0.000000
vt 1.000000 1.000000
vt 0.000000 1.000000
vt 0.072819 0.000000
vt 0.790593 0.000000
vt 0.358065 1.000000
vt 0.000000 0.555555
vt 0.000000 0.000000
vt 1.000000 0.000000
vt 1.000000 1.000000
vt 0.000000 1.000000
vt 0.000000 0.000000
vt 1.000000 0.000000
vt 1.000000 1.000000
vt 0.000000 1.000000
vt 0.072819 0.000000
vt 0.790593 0.000000
vt 0.358065 1.000000
vt 0.000000 0.555555
vt 1.000000 0.000000
vt 1.000000 1.000000
vt 0.000000 1.000000
vt 0.000000 0.000000
vt 0.000000 0.000000
vt 1.000000 0.000000
vt 1.000000 1.000000
vt 0.000000 1.000000
vt 0.072819 0.000000
vt 0.790593 0.000000
vt 0.358065 1.000000
vt 0.000000 0.555555
vt 1.000000 0.000000
vt 1.000000 1.000000
vt 0.000000 1.000000
vt 0.000000 0.000000
vt 0.000000 0.000000
vt 1.000000 0.000000
vt 1.000000 1.000000
vt 0.000000 1.000000
vt 0.072819 0.000000
vt 0.790593 0.000000
vt 0.358065 1.000000
vt 0.000000 0.555555
vt 1.000000 0.000000
vt 1.000000 1.000000
vt 0.000000 1.000000
vt 0.000000 0.000000
vt 0.000000 0.000000
vt 1.000000 0.000000
vt 1.000000 1.000000
vt 0.000000 1.000000
vt 0.072819 0.000000
vt 0.790593 0.000000
vt 0.358065 1.000000
vt 0.000000 0.555555
vt 0.000000 0.000000
vt 1.000000 0.000000
vt 1.000000 1.000000
vt 0.000000 1.000000
vt 0.000000 0.000000
vt 1.000000 0.000000
vt 1.000000 1.000000
vt 0.000000 1.000000
vt 0.072819 0.000000
vt 0.000000 0.555555
vt 0.358065 1.000000
vt 0.790593 0.000000
vt 0.000000 0.000000
vt 0.000000 1.000000
vt 1.000000 1.000000
vt 1.000000 0.000000
vt 0.000000 0.000000
vt 0.000000 1.000000
vt 1.000000 1.000000
vt 1.000000 0.000000
vt 0.072819 0.000000
vt 0.790593 0.000000
vt 0.790593 0.000000
vt 0.072819 0.000000
vt 0.358065 1.000000
vt 0.000000 0.555555
vt 0.000000 0.555555
vt 0.358065 1.000000
vt 1.000000 0.000000
vt 1.000000 1.000000
vt 1.000000 1.000000
vt 1.000000 0.000000
vt 0.000000 1.000000
vt 0.000000 0.000000
vt 0.000000 0.000000
vt 0.000000 1.000000
vt 0.000000 0.000000
vt 1.000000 0.000000
vt 1.000000 0.000000
vt 0.000000 0.000000
vt 1.000000 1.000000
vt 1.000000 1.000000
vt 0.000000 1.000000
vt 0.000000 1.000000
vt 0.790593 0.000000
vt 0.072819 0.000000
vt 0.000000 0.555555
vt 0.358065 1.000000
vt 1.000000 1.000000
vt 1.000000 0.000000
vt 0.000000 0.000000
vt 0.000000 1.000000
vt 1.000000 0.000000
vt 0.000000 0.000000
vt 1.000000 1.000000
vt 0.000000 1.000000
vn -0.659901 0.257604 -0.705812
vn -0.659901 0.257604 -0.705812
vn -0.659901 0.257604 -0.705812
vn -0.659901 0.257604 -0.705812
vn -0.653693 0.111827 -0.748452
vn -0.653693 0.111827 -0.748452
vn -0.653693 0.111827 -0.748452
vn -0.653693 0.111827 -0.748452
vn -0.639495 0.122800 -0.758925
vn -0.639495 0.122800 -0.758925
vn -0.639495 0.122800 -0.758925
vn -0.639495 0.122800 -0.758925
vn 0.999206 0.036890 -0.015085
vn 0.999205 0.036890 -0.015085
vn 0.999205 0.036890 -0.015085
vn 0.999206 0.036890 -0.015085
vn 0.981413 0.191223 0.016203
vn 0.981413 0.191223 0.016203
vn 0.981413 0.191223 0.016203
vn 0.981413 0.191223 0.016203
vn 0.983576 0.177374 0.033418
vn 0.983576 0.177374 0.033418
vn 0.983576 0.177374 0.033418
vn 0.983576 0.177374 0.033418
vn -0.828215 0.234080 0.509182
vn -0.828215 0.234080 0.509182
vn -0.876036 0.037274 0.480803
vn -0.886360 -0.063806 0.458580
vn 0.903567 -0.060662 0.424130
vn 0.903567 -0.060662 0.424130
vn 0.903567 -0.060662 0.424130
vn 0.903567 -0.060662 0.424130
vn 0.794603 0.559198 0.236440
vn 0.794603 0.559198 0.236440
vn 0.794603 0.559198 0.236440
vn 0.794603 0.559198 0.236440
vn 0.954982 -0.060762 -0.290376
vn 0.966567 -0.012876 0.256092
vn 0.881810 0.009283 0.471513
vn 0.881810 0.009283 0.471513
vn -0.883175 -0.241068 0.402353
vn -0.879686 -0.275194 0.387841
vn -0.480891 -0.736181 -0.476216
vn -0.480891 -0.736181 -0.476216
vn -0.480891 -0.736181 -0.476216
vn -0.480891 -0.736181 -0.476216
vn 0.922228 -0.067544 -0.380701
vn 0.922228 -0.067544 -0.380701
vn -0.870715 -0.333611 0.361330
vn -0.870715 -0.333611 0.361330
vn -0.880237 0.421163 0.218644
vn -0.880237 0.421163 0.218644
vn -0.880237 0.421163 0.218644
vn -0.880237 0.421163 0.218644
vn 0.763939 0.485846 -0.424678
vn 0.763939 0.485846 -0.424678
vn 0.763939 0.485845 -0.424678
vn 0.763939 0.485845 -0.424678
vn 0.231701 0.967478 -0.101492
vn 0.231702 0.967478 -0.101492
vn 0.231702 0.967478 -0.101492
vn 0.231702 0.967478 -0.101492
vn 0.771723 -0.093871 -0.628992
vn 0.771723 -0.093871 -0.628992
vn 0.771723 -0.093871 -0.628992
vn 0.771723 -0.093871 -0.628992
vn -0.996576 -0.047451 0.067708
vn -0.996576 -0.047451 0.067708
vn -0.996576 -0.047451 0.067708
vn -0.996576 -0.047451 0.067708
vn -0.187615 -0.686845 -0.702171
vn -0.187615 -0.686845 -0.702171
vn -0.187615 -0.686845 -0.702171
vn -0.187615 -0.686845 -0.702171
vn 0.732415 -0.203093 -0.649862
vn 0.732415 -0.203093 -0.649862
vn 0.732415 -0.203093 -0.649862
vn 0.732415 -0.203093 -0.649862
vn -0.966176 -0.244338 -0.082480
vn -0.966176 -0.244338 -0.082480
vn -0.966176 -0.244338 -0.082480
vn -0.966176 -0.244338 -0.082480
vn -0.919154 0.360191 0.159430
vn -0.919154 0.360191 0.159430
vn -0.919154 0.360191 0.159430
vn -0.919154 0.360191 0.159430
vn 0.920954 0.378898 -0.090997
vn 0.920954 0.378898 -0.090997
vn 0.920954 0.378898 -0.090997
vn 0.920954 0.378898 -0.090997
vn 0.408243 0.885361 0.222427
vn 0.408243 0.885361 0.222427
vn 0.408243 0.885361 0.222427
vn 0.408243 0.885361 0.222427
vn 0.921266 -0.053918 -0.385177
vn 0.921266 -0.053918 -0.385177
vn 0.921266 -0.053918 -0.385177
vn 0.921266 -0.053918 -0.385177
vn -0.994089 -0.072856 -0.080495
vn -0.994089 -0.072856 -0.080495
vn -0.994089 -0.072856 -0.080495
vn -0.994089 -0.072856 -0.080495
vn -0.372745 -0.603961 -0.704480
vn -0.372745 -0.603961 -0.704480
vn -0.372745 -0.603961 -0.704480
vn -0.372745 -0.603961 -0.704480
vn 0.864137 -0.166615 -0.474876
vn 0.864137 -0.166615 -0.474876
vn 0.864137 -0.166615 -0.474876
vn 0.864137 -0.166615 -0.474876
vn -0.958905 -0.208257 -0.192692
vn -0.958905 -0.208257 -0.192692
vn -0.958905 -0.208257 -0.192692
vn -0.958905 -0.208257 -0.192692
vn 0.659905 0.257602 -0.705809
vn 0.659905 0.257602 -0.705809
vn 0.659905 0.257602 -0.705809
vn 0.659905 0.257602 -0.705809
vn 0.653688 0.111826 -0.748456
vn 0.653688 0.111826 -0.748456
vn 0.653688 0.111826 -0.748456
vn 0.653688 0.111826 -0.748456
vn 0.639498 0.122801 -0.758922
vn 0.639498 0.122801 -0.758922
vn 0.639498 0.122801 -0.758922
vn 0.639498 0.122801 -0.758922
vn -0.999205 0.036890 -0.015085
vn -0.999206 0.036890 -0.015085
vn -0.999205 0.036890 -0.015085
vn -0.999205 0.036890 -0.015085
vn -0.981413 0.191223 0.016203
vn -0.981413 0.191223 0.016203
vn -0.981413 0.191223 0.016203
vn -0.981413 0.191223 0.016203
vn -0.983576 0.177374 0.033418
vn -0.983576 0.177374 0.033418
vn -0.983576 0.177374 0.033418
vn -0.983576 0.177374 0.033418
vn 0.828215 0.234080 0.509182
vn 0.886360 -0.063806 0.458579
vn 0.876036 0.037274 0.480803
vn 0.828215 0.234080 0.509182
vn -0.903567 -0.060662 0.424130
vn -0.903567 -0.060662 0.424130
vn -0.903567 -0.060662 0.424130
vn -0.903567 -0.060662 0.424130
vn -0.794603 0.559198 0.236439
vn -0.794603 0.559198 0.236439
vn -0.794603 0.559198 0.236439
vn -0.794603 0.559198 0.236439
vn -0.954982 -0.060762 -0.290377
vn -0.881810 0.009283 0.471513
vn -0.881810 0.009283 0.471513
vn -0.966567 -0.012876 0.256092
vn 0.879686 -0.275194 0.387841
vn 0.883175 -0.241068 0.402353
vn 0.480891 -0.736181 -0.476215
vn 0.480891 -0.736181 -0.476215
vn 0.480891 -0.736181 -0.476215
vn 0.480891 -0.736181 -0.476215
vn -0.922228 -0.067544 -0.380701
vn -0.922228 -0.067544 -0.380701
vn 0.870715 -0.333611 0.361330
vn 0.870715 -0.333611 0.361330
vn 0.880237 0.421163 0.218643
vn 0.880237 0.421163 0.218643
vn 0.880237 0.421163 0.218643
vn 0.880237 0.421163 0.218643
vn -0.763939 0.485845 -0.424678
vn -0.763939 0.485845 -0.424678
vn -0.763939 0.485845 -0.424678
vn -0.763939 0.485845 -0.424678
vn -0.231701 0.967478 -0.101494
vn -0.231701 0.967478 -0.101494
vn -0.231701 0.967478 -0.101494
vn -0.231701 0.967478 -0.101494
vn -0.771722 -0.093871 -0.628993
vn -0.771722 -0.093871 -0.628993
vn -0.771723 -0.093871 -0.628993
vn -0.771722 -0.093871 -0.628993
vn 0.996576 -0.047451 0.067708
vn 0.996576 -0.047451 0.067708
vn 0.996576 -0.047451 0.067708
vn 0.996576 -0.047451 0.067708
vn 0.187615 -0.686846 -0.702170
vn 0.187615 -0.686846 -0.702170
vn 0.187615 -0.686846 -0.702170
vn 0.187615 -0.686846 -0.702170
vn -0.732415 -0.203093 -0.649863
vn -0.732415 -0.203093 -0.649863
vn -0.732415 -0.203093 -0.649863
vn -0.732415 -0.203093 -0.649863
vn 0.966176 -0.244338 -0.082480
vn 0.966176 -0.244338 -0.082480
vn 0.966176 -0.244338 -0.082480
vn 0.966176 -0.244338 -0.082480
vn 0.919154 0.360191 0.159429
vn 0.919154 0.360191 0.159429
vn 0.919154 0.360191 0.159429
vn 0.919154 0.360191 0.159429
vn -0.920953 0.378898 -0.091000
vn -0.920953 0.378898 -0.091000
vn -0.920953 0.378898 -0.091000
vn -0.920953 0.378898 -0.091000
vn -0.408243 0.885361 0.222426
vn -0.408243 0.885361 0.222426
vn -0.408243 0.885361 0.222426
vn -0.408243 0.885361 0.222426
vn -0.921266 -0.053917 -0.385177
vn -0.921266 -0.053917 -0.385177
vn -0.921266 -0.053917 -0.385177
vn -0.921266 -0.053917 -0.385177
vn 0.994089 -0.072857 -0.080495
vn 0.994089 -0.072857 -0.080495
vn 0.994089 -0.072857 -0.080495
vn 0.994089 -0.072857 -0.080495
vn 0.372745 -0.603962 -0.704480
vn 0.372745 -0.603962 -0.704480
vn 0.372745 -0.603962 -0.704480
vn 0.372745 -0.603962 -0.704480
vn -0.864137 -0.166616 -0.474876
vn -0.864137 -0.166616 -0.474876
vn -0.864137 -0.166616 -0.474876
vn -0.864137 -0.166616 -0.474876
vn 0.958905 -0.208256 -0.192691
vn 0.958905 -0.208256 -0.192691
vn 0.958905 -0.208256 -0.192691
vn 0.958905 -0.208256 -0.192691
s off
g polySurface7
usemtl initialShadingGroup
f 25/49/1 28/52/2 27/51/3 26/50/4
f 29/56/5 26/55/6 27/54/7 30/53/8
f 31/57/9 29/60/10 30/59/11 32/58/12
f 1/13/13 2/14/14 3/15/15 4/16/16
f 6/17/17 5/18/18 3/19/19 2/20/20
f 8/21/21 7/22/22 5/23/23 6/24/24
s 1
f 1/1/25 9/25/26 10/26/27 2/2/28
s off
f 3/3/29 11/27/30 12/28/31 4/4/32
f 4/4/33 12/28/34 9/25/35 1/1/36
s 2
f 5/6/37 14/29/38 11/30/39 3/7/40
s 1
f 2/8/28 10/31/27 13/32/41 6/5/42
s off
f 8/9/43 15/33/44 16/34/45 7/10/46
s 2
f 7/10/47 16/34/48 14/35/38 5/11/37
s 1
f 6/12/42 13/36/41 15/33/49 8/9/50
s off
f 9/25/51 17/37/52 18/38/53 10/26/54
f 11/27/55 19/39/56 20/40/57 12/28/58
f 12/28/59 20/40/60 17/37/61 9/25/62
f 14/29/63 22/41/64 19/42/65 11/30/66
f 10/31/67 18/43/68 21/44/69 13/32/70
f 15/33/71 23/45/72 24/46/73 16/34/74
f 16/34/75 24/46/76 22/47/77 14/35/78
f 13/36/79 21/48/80 23/45/81 15/33/82
f 17/37/83 25/49/84 26/50/85 18/38/86
f 19/39/87 27/51/88 28/52/89 20/40/90
f 20/40/91 28/52/92 25/49/93 17/37/94
f 22/41/95 30/53/96 27/54/97 19/42/98
f 18/43/99 26/55/100 29/56/101 21/44/102
f 23/45/103 31/57/104 32/58/105 24/46/106
f 24/46/107 32/58/108 30/59/109 22/47/110
f 21/48/111 29/60/112 31/57/113 23/45/114
f 57/61/115 58/62/116 59/63/117 60/64/118
f 61/65/119 62/66/120 59/67/121 58/68/122
f 63/69/123 64/70/124 62/71/125 61/72/126
f 33/73/127 36/74/128 35/75/129 34/76/130
f 38/77/131 34/78/132 35/79/133 37/80/134
f 40/81/135 38/82/136 37/83/137 39/84/138
s 3
f 33/85/139 34/86/140 42/87/141 41/88/142
s off
f 35/89/143 36/90/144 44/91/145 43/92/146
f 36/90/147 33/85/148 41/88/149 44/91/150
s 4
f 37/93/151 35/94/152 43/95/153 46/96/154
s 3
f 34/97/140 38/98/155 45/99/156 42/100/141
s off
f 40/101/157 39/102/158 48/103/159 47/104/160
s 4
f 39/102/161 37/105/151 46/106/154 48/103/162
s 3
f 38/107/155 40/101/163 47/104/164 45/108/156
s off
f 41/88/165 42/87/166 50/109/167 49/110/168
f 43/92/169 44/91/170 52/111/171 51/112/172
f 44/91/173 41/88/174 49/110/175 52/111/176
f 46/96/177 43/95/178 51/113/179 54/114/180
f 42/100/181 45/99/182 53/115/183 50/116/184
f 47/104/185 48/103/186 56/117/187 55/118/188
f 48/103/189 46/106/190 54/119/191 56/117/192
f 45/108/193 47/104/194 55/118/195 53/120/196
f 49/110/197 50/109/198 58/62/199 57/61/200
f 51/112/201 52/111/202 60/64/203 59/63/204
f 52/111/205 49/110/206 57/61/207 60/64/208
f 54/114/209 51/113/210 59/67/211 62/66/212
f 50/116/213 53/115/214 61/65/215 58/68/216
f 55/118/217 56/117/218 64/70/219 63/69/220
f 56/117/221 54/119/222 62/71/223 64/70/224
f 53/120/225 55/118/226 63/69/227 61/72/228
