# This file uses meters as units for non-parametric coordinates.

mtllib flatWall.mtl
g default
v -500.000000 35.257523 -3.771684
v -500.000000 35.257523 -18.327728
v -500.000000 -0.000031 -12.651424
v -500.000000 -0.000031 -0.000000
v -500.000000 74.536026 -14.893715
v -500.000000 74.536026 -35.066135
v -500.000000 133.078278 -32.949589
v -499.999969 142.648880 -70.210457
v -500.000000 219.447937 -49.893402
v -500.000000 219.447937 -87.739883
v -500.000000 174.834595 -86.286346
v -500.000000 174.834595 -48.927586
v -500.000000 156.100174 -45.640446
v -500.000000 156.100174 -81.339279
v -350.000000 35.257523 -3.771684
v -350.000000 74.536026 -14.893715
v -358.765152 137.958290 -34.816917
v -350.000000 156.100174 -45.640446
v -358.765152 169.954582 -47.060257
v -350.000000 219.447937 -49.893402
v -350.000000 219.447937 -87.739883
v -350.000000 174.834595 -86.286346
v -350.000000 156.100174 -81.339279
v -349.999969 142.648880 -70.210457
v -350.000000 74.536026 -35.066135
v -350.000000 35.257523 -18.327728
v -350.000000 -0.000031 -12.651424
v -350.000000 -0.000031 -0.000000
v -391.959763 35.257523 -3.771684
v -399.999939 61.044113 -14.893714
v -399.999939 133.078278 -32.949585
v -399.999939 174.834595 -48.927582
v -399.999939 219.447937 -49.893402
v -399.999939 219.447937 -87.739883
v -399.999939 174.834595 -86.286346
v -399.999939 156.100174 -81.339279
v -399.999908 142.648880 -70.210457
v -399.999939 74.536026 -35.066135
v -399.999939 35.257523 -18.327728
v -399.999939 -0.000031 -12.651424
v -399.999939 -0.000031 -0.000000
v -458.040161 35.257523 -3.771684
v -449.999969 61.044113 -14.893715
v -449.999969 133.078278 -32.949585
v -449.999969 156.100174 -45.640446
v -449.999969 174.834595 -48.927582
v -449.999969 219.447937 -49.893402
v -449.999969 219.447937 -87.739883
v -449.999969 174.834595 -86.286346
v -449.999969 156.100174 -81.339279
v -449.999939 142.648880 -70.210457
v -449.999969 74.536026 -35.066135
v -458.040161 35.257523 -18.327728
v -449.999969 -0.000031 -12.651424
v -449.999969 -0.000031 -0.000000
v -300.000000 35.257523 -3.771684
v -300.000000 74.536026 -14.893715
v -300.000000 133.078278 -32.949589
v -300.000000 156.100174 -45.640446
v -300.000000 174.834595 -48.927586
v -300.000000 219.447937 -49.893402
v -300.000000 219.447937 -87.739883
v -300.000000 174.834595 -86.286346
v -300.000000 156.100174 -81.339279
v -299.999969 142.648880 -70.210457
v -300.000000 74.536026 -35.066135
v -300.000000 35.257523 -18.327728
v -300.000000 -0.000031 -12.651424
v -300.000000 -0.000031 -0.000000
v -374.999969 35.257523 -3.771684
v -374.999969 74.536026 -14.893715
v -374.999969 133.078278 -32.949585
v -374.999969 174.834595 -48.927582
v -374.999969 219.447937 -49.893402
v -374.999969 219.447937 -87.739883
v -374.999969 174.834595 -86.286346
v -374.999969 156.100174 -81.339279
v -374.999939 142.648880 -70.210457
v -374.999969 74.536026 -35.066135
v -374.999969 35.257523 -18.327728
v -374.999969 -0.000031 -12.651424
v -374.999969 -0.000031 -0.000000
v -424.999939 69.929626 -14.893715
v -416.234787 137.958290 -34.816914
v -424.999939 156.100174 -45.640446
v -416.234787 169.954582 -47.060253
v -424.999939 219.447937 -49.893402
v -424.999939 219.447937 -87.739883
v -424.999939 174.834595 -86.286346
v -424.999939 156.100174 -81.339279
v -424.999939 142.648880 -70.210457
v -424.999939 74.536026 -35.066135
v -424.999939 35.257523 -18.327728
v -424.999939 -0.000031 -12.651424
v -424.999939 -0.000031 -0.000000
v -424.999939 35.257523 9.472815
v -424.999939 62.318542 -1.890441
v -439.286957 56.721928 -3.049856
v -444.960281 32.892784 5.855575
v -424.999939 -0.000031 13.244499
v -437.621979 0.000031 10.117762
v -406.084030 32.437630 5.159349
v -410.898010 56.615337 -3.212900
v -412.497681 0.000023 10.012258
v -377.412964 143.325603 -25.195948
v -377.068634 158.369099 -24.673399
v -397.931290 158.369099 -24.673401
v -397.292419 143.153385 -25.192114
v -378.459427 170.330261 -36.736782
v -396.792465 169.535942 -37.010757
v -367.543152 147.444237 -27.742298
v -362.385574 157.895767 -31.662970
v -368.093735 166.885933 -35.988461
v -412.614365 157.895767 -31.662970
v -407.581940 147.216103 -27.463814
v -406.573837 166.572472 -36.385494
vt 0.453456 0.490469
vt 0.424107 0.497818
vt 0.417751 0.423863
vt 0.443260 0.417476
vt 0.450862 0.575280
vt 0.410188 0.585465
vt 0.444013 0.702434
vt 0.373717 0.740543
vt 0.453456 0.885135
vt 0.377147 0.904242
vt 0.357553 0.813555
vt 0.432879 0.794693
vt 0.430048 0.755260
vt 0.358069 0.773284
vt 0.328494 0.074232
vt 0.311784 0.000004
vt 0.415711 0.000006
vt 0.415709 0.074234
vt 0.979956 0.107026
vt 0.954158 0.101954
vt 0.974203 -0.000000
vt 1.000000 0.005072
vt 0.890573 0.103925
vt 0.816759 0.087715
vt 0.816163 0.000503
vt 0.889865 -0.000000
vt 0.311782 0.162977
vt 0.415708 0.162978
vt 0.758615 0.105204
vt 0.731314 0.001081
vt 0.311779 0.322287
vt 0.415705 0.322288
vt 0.604204 0.105633
vt 0.603980 0.001697
vt 0.533448 0.521588
vt 0.454783 0.521588
vt 0.454783 0.417662
vt 0.533448 0.417662
vt 0.311778 0.491627
vt 0.311779 0.398849
vt 0.415704 0.398850
vt 0.415704 0.491628
vt 0.510044 0.105690
vt 0.417405 0.105979
vt 0.417145 0.002071
vt 0.509887 0.001875
vt 0.311779 0.358574
vt 0.415705 0.358575
vt 0.549543 0.105681
vt 0.549382 0.001808
vt 0.816121 0.418213
vt 0.731272 0.417989
vt 0.731518 0.314028
vt 0.816450 0.314249
vt 0.603920 0.417723
vt 0.593298 0.295536
vt 0.549307 0.417663
vt 0.549366 0.313768
vt 0.509811 0.417661
vt 0.520430 0.295583
vt 0.417145 0.417397
vt 0.417439 0.313566
vt 0.533448 0.833369
vt 0.454782 0.833369
vt 0.454783 0.729442
vt 0.533448 0.729442
vt 0.000002 0.491626
vt 0.000001 0.398848
vt 0.103927 0.398848
vt 0.103927 0.491626
vt 0.000001 0.358573
vt 0.103927 0.358573
vt 0.000000 0.322285
vt 0.103927 0.322285
vt 0.000000 0.162976
vt 0.103927 0.162976
vt 0.000000 0.074229
vt 0.103928 0.074229
vt 0.000000 -0.000000
vt 0.103928 -0.000000
vt 0.919845 0.412930
vt 0.894042 0.407860
vt 0.914077 0.305885
vt 0.939878 0.310954
vt 0.889801 0.418463
vt 0.890174 0.314566
vt 0.816623 0.262194
vt 0.731635 0.262024
vt 0.758733 0.209572
vt 0.816920 0.226886
vt 0.604201 0.261753
vt 0.604314 0.209727
vt 0.777814 0.526720
vt 0.749475 0.525880
vt 0.750145 0.489191
vt 0.778589 0.488429
vt 0.717271 0.525567
vt 0.717833 0.488429
vt 0.510218 0.261674
vt 0.417558 0.261667
vt 0.417559 0.209778
vt 0.510220 0.209764
vt 0.533448 0.677479
vt 0.454783 0.677479
vt 0.454783 0.625516
vt 0.533448 0.625516
vt 0.155890 0.491626
vt 0.155890 0.398848
vt 0.207853 0.398848
vt 0.207852 0.491626
vt 0.155890 0.358573
vt 0.207853 0.358573
vt 0.155890 0.322285
vt 0.207853 0.322285
vt 0.155891 0.162976
vt 0.207854 0.162976
vt 0.155891 0.074230
vt 0.207856 0.074230
vt 0.155893 0.000001
vt 0.207857 0.000002
vt 0.949896 0.259968
vt 0.924095 0.254899
vt 0.934115 0.203915
vt 0.959915 0.208985
vt 0.890442 0.262641
vt 0.890780 0.210643
vt 0.617330 0.505203
vt 0.601171 0.561272
vt 0.573674 0.544565
vt 0.579241 0.489853
vt 0.740862 0.157399
vt 0.593494 0.175907
vt 0.549522 0.157663
vt 0.520536 0.175875
vt 0.417536 0.157885
vt 0.533448 0.573553
vt 0.454783 0.573551
vt 0.259815 0.491626
vt 0.259816 0.398848
vt 0.259816 0.358573
vt 0.259816 0.322287
vt 0.259817 0.162977
vt 0.259819 0.074231
vt 0.259820 0.000002
vt 0.969934 0.158005
vt 0.944135 0.152933
vt 0.634492 0.443909
vt 0.612181 0.437915
vt 0.907900 0.875447
vt 0.923800 0.784062
vt 1.000000 0.799026
vt 0.985096 0.890605
vt 0.924600 0.744533
vt 0.997414 0.758832
vt 0.907936 0.692492
vt 0.980102 0.726938
vt 0.894559 0.565852
vt 0.935704 0.573934
vt 0.887609 0.481284
vt 0.917298 0.487115
vt 0.768339 0.546666
vt 0.745570 0.555954
vt 0.725141 0.546117
vt 0.656692 0.512798
vt 0.632209 0.561386
vt 0.747298 0.459026
vt 0.769713 0.468332
vt 0.725605 0.468367
vt 0.656004 0.449069
vt 0.589986 0.593285
vt 0.536329 0.556513
vt 0.542307 0.485932
vt 0.588283 0.417707
vt 0.642938 0.419082
vt 0.689546 0.532370
vt 0.653703 0.593019
vt 0.689546 0.448751
vt 0.804910 0.480352
vt 0.804112 0.537164
vt 0.690014 0.534943
vt 0.690014 0.477238
vt 0.785877 0.574340
vt 0.734795 0.595539
vt 0.705015 0.571123
vt 0.743574 0.418024
vt 0.789956 0.444157
vt 0.708347 0.439381
vn -1.000000 0.000000 0.000000
vn -1.000000 0.000000 0.000000
vn -1.000000 0.000000 0.000000
vn -1.000000 0.000000 0.000000
vn -1.000000 0.000000 -0.000000
vn -1.000000 0.000000 -0.000000
vn -1.000000 -0.000000 0.000000
vn -1.000000 -0.000001 0.000000
vn -1.000000 0.000000 0.000000
vn -1.000000 0.000000 0.000000
vn -1.000000 0.000000 0.000000
vn -1.000000 0.000000 0.000000
vn -1.000000 -0.000001 0.000000
vn -1.000000 -0.000000 0.000000
vn 0.000000 -0.287696 -0.957722
vn 0.000000 -0.469424 -0.882973
vn 0.000000 -0.482724 -0.875773
vn 0.000000 -0.287983 -0.957636
vn -0.000000 -0.539672 0.841875
vn -0.000000 -0.272507 0.962154
vn 0.023670 0.214393 0.976461
vn 0.023310 0.212761 0.976826
vn 0.000000 -0.435423 -0.900226
vn 0.000000 -0.436271 -0.899816
vn 0.020406 0.279145 0.960032
vn 0.038687 0.279638 0.959326
vn 0.000000 -0.493444 -0.869778
vn 0.000000 -0.493444 -0.869778
vn 0.005470 0.323564 0.946190
vn 0.026043 0.328697 0.944076
vn -0.008453 0.632052 0.774880
vn 0.000000 1.000000 -0.000000
vn 0.000000 1.000000 -0.000000
vn -0.000000 0.656353 0.754454
vn 0.000000 -0.032564 -0.999470
vn 0.000000 -0.100527 -0.994934
vn 0.000000 -0.100527 -0.994934
vn 0.000000 -0.032564 -0.999470
vn -0.010055 0.065507 0.997802
vn -0.000000 0.066986 0.997754
vn 0.000000 -0.446836 -0.894616
vn 0.000000 -0.446836 -0.894616
vn -0.005541 0.357373 0.933945
vn -0.000000 0.357378 0.933960
vn -0.000000 0.195945 0.980615
vn -0.001927 0.287986 0.957633
vn -0.000220 0.287840 0.957678
vn -0.000000 0.195945 0.980615
vn -0.000464 0.348334 0.937370
vn 0.001524 0.338347 0.941020
vn 0.008728 0.357365 0.933924
vn 0.008795 0.350324 0.936587
vn 0.014224 0.064784 0.997798
vn 0.000864 0.058628 0.998280
vn 0.012150 0.615744 0.787852
vn 0.001840 0.627801 0.778372
vn 0.000000 1.000000 -0.000000
vn 0.000000 1.000000 -0.000000
vn 0.000000 -0.032563 -0.999470
vn 0.000000 -0.100527 -0.994934
vn 0.000000 -0.100527 -0.994934
vn 0.000000 -0.032563 -0.999470
vn 0.000000 -0.446836 -0.894616
vn 0.000000 -0.446836 -0.894616
vn 0.000000 -0.493444 -0.869778
vn 0.000000 -0.493444 -0.869778
vn 0.000000 -0.435012 -0.900425
vn 0.000000 -0.435012 -0.900425
vn 0.000000 -0.287983 -0.957636
vn 0.000000 -0.287983 -0.957636
vn 0.000000 -0.461230 -0.887281
vn 0.000000 -0.461230 -0.887281
vn -0.000000 -0.244227 0.969718
vn -0.000000 -0.244227 0.969718
vn -0.022174 0.202390 0.979054
vn -0.039429 0.280465 0.959054
vn -0.036283 0.275544 0.960603
vn -0.051311 0.212058 0.975909
vn -0.033205 0.281587 0.958961
vn -0.012397 0.262724 0.964791
vn 0.111357 -0.318930 0.941214
vn 0.110063 0.381420 0.917826
vn -0.120678 0.387147 0.914087
vn -0.105167 -0.322291 0.940781
vn 0.068950 0.831024 0.551946
vn -0.091195 0.827374 0.554198
vn -0.020441 0.033087 0.999243
vn -0.013693 0.682872 0.730409
vn 0.013693 0.682872 0.730409
vn 0.020441 0.033087 0.999243
vn 0.000000 1.000000 -0.000000
vn 0.000000 1.000000 -0.000000
vn 0.000000 -0.032563 -0.999470
vn 0.000000 -0.100527 -0.994934
vn 0.000000 -0.100527 -0.994934
vn 0.000000 -0.032563 -0.999470
vn 0.000000 -0.446836 -0.894616
vn 0.000000 -0.446836 -0.894616
vn 0.000000 -0.493444 -0.869778
vn 0.000000 -0.493444 -0.869778
vn 0.000000 -0.435012 -0.900425
vn 0.000000 -0.435012 -0.900425
vn 0.000000 -0.287983 -0.957636
vn 0.000000 -0.287983 -0.957636
vn 0.000000 -0.461230 -0.887281
vn 0.000000 -0.461230 -0.887281
vn -0.000000 -0.272507 0.962154
vn 0.000000 -0.717664 0.696389
vn 0.013115 0.237961 0.971186
vn 0.008204 0.619405 0.785029
vn -0.359515 0.530089 0.767955
vn -0.429621 0.179107 0.885069
vn -0.002299 0.261840 0.965109
vn -0.001182 0.300766 0.953697
vn -0.016130 0.350356 0.936478
vn -0.000848 0.057197 0.998363
vn -0.002812 0.638547 0.769578
vn 0.000000 1.000000 -0.000000
vn 0.000000 -0.032563 -0.999470
vn 0.000000 -0.100527 -0.994934
vn 0.000000 -0.446836 -0.894616
vn 0.000000 -0.493444 -0.869778
vn 0.000000 -0.433822 -0.900998
vn 0.000000 -0.287983 -0.957636
vn 0.000000 -0.442271 -0.896882
vn -0.000000 -1.000000 0.000001
vn 0.012755 0.098722 0.995033
vn -0.383736 0.037168 0.922695
vn 1.000000 0.000000 0.000000
vn 1.000000 0.000000 0.000000
vn 1.000000 0.000000 0.000000
vn 1.000000 0.000000 0.000000
vn 1.000000 0.000001 0.000000
vn 1.000000 0.000000 0.000000
vn 1.000000 0.000000 0.000001
vn 1.000000 0.000001 0.000001
vn 1.000000 -0.000000 0.000000
vn 1.000000 -0.000000 0.000000
vn 1.000000 0.000000 0.000000
vn 1.000000 0.000000 0.000000
vn 1.000000 0.000000 0.000000
vn 1.000000 0.000000 0.000000
vn 0.496868 -0.120500 0.859420
vn 0.603675 0.295655 0.740382
vn 0.388237 0.710071 0.587427
vn 0.423861 0.181359 0.887385
vn 0.364805 0.516519 0.774678
vn -0.600667 0.304829 0.739106
vn -0.493182 -0.122847 0.861208
vn -0.372774 0.717713 0.588156
vn 0.390736 0.050612 0.919111
vn 0.001030 0.836582 0.547840
vn -0.462652 0.584164 0.666863
vn -0.587773 0.222501 0.777828
vn -0.614880 -0.045943 0.787281
vn -0.000000 -1.000000 0.000003
vn -0.000002 -1.000000 0.000004
vn 0.551115 0.227289 0.802877
vn 0.445071 0.568983 0.691498
vn 0.581083 -0.020415 0.813588
vn 0.000002 -1.000000 0.000003
vn -0.126136 -0.557862 0.820293
vn 0.130097 -0.551620 0.823887
vn 0.095223 0.912826 0.397091
vn -0.105226 0.904642 0.412978
vn 0.600828 -0.148811 0.785405
vn 0.693061 0.286774 0.661382
vn 0.504393 0.679917 0.532260
vn -0.687968 0.295513 0.662851
vn -0.606260 -0.152868 0.780436
vn -0.486695 0.678138 0.550687
s 1
g polySurface3 polySurface1 pPlane1
usemtl initialShadingGroup
f 1/1/1 2/2/2 3/3/3 4/4/4
f 5/5/5 6/6/6 2/2/2 1/1/1
f 7/7/7 8/8/8 6/6/6 5/5/5
f 9/9/9 10/10/10 11/11/11 12/12/12
f 13/13/13 14/14/14 8/8/8 7/7/7
f 12/12/12 11/11/11 14/14/14 13/13/13
s 3
f 53/15/15 54/16/16 3/17/17 2/18/18
f 54/19/16 55/20/19 4/21/20 3/22/17
f 55/23/19 42/24/21 1/25/22 4/26/20
f 52/27/23 53/15/15 2/18/18 6/28/24
f 42/24/21 43/29/25 5/30/26 1/25/22
f 51/31/27 52/27/23 6/28/24 8/32/28
f 43/29/25 44/33/29 7/34/30 5/30/26
f 47/35/31 48/36/32 10/37/33 9/38/34
f 48/39/35 49/40/36 11/41/37 10/42/38
f 46/43/39 47/44/31 9/45/34 12/46/40
f 50/47/41 51/31/27 8/32/28 14/48/42
f 44/33/29 45/49/43 13/50/44 7/34/30
f 49/40/36 50/47/41 14/48/42 11/41/37
f 45/49/43 46/43/39 12/46/40 13/50/44
f 56/51/45 57/52/46 16/53/47 15/54/48
f 57/52/46 58/55/49 17/56/50 16/53/47
f 58/55/49 59/57/51 18/58/52 17/56/50
f 59/57/51 60/59/53 19/60/54 18/58/52
f 60/59/53 61/61/55 20/62/56 19/60/54
f 61/63/55 62/64/57 21/65/58 20/66/56
f 62/67/59 63/68/60 22/69/61 21/70/62
f 63/68/60 64/71/63 23/72/64 22/69/61
f 64/71/63 65/73/65 24/74/66 23/72/64
f 65/73/65 66/75/67 25/76/68 24/74/66
f 66/75/67 67/77/69 26/78/70 25/76/68
f 67/77/69 68/79/71 27/80/72 26/78/70
f 68/81/71 69/82/73 28/83/74 27/84/72
f 69/85/73 56/51/45 15/54/48 28/86/74
f 70/87/75 71/88/76 30/89/77 29/90/78
f 71/88/76 72/91/79 31/92/80 30/89/77
s 8
f 105/93/81 106/94/82 107/95/83 108/96/84
f 106/94/82 109/97/85 110/98/86 107/95/83
s 3
f 73/99/87 74/100/88 33/101/89 32/102/90
f 74/103/88 75/104/91 34/105/92 33/106/89
f 75/107/93 76/108/94 35/109/95 34/110/96
f 76/108/94 77/111/97 36/112/98 35/109/95
f 77/111/97 78/113/99 37/114/100 36/112/98
f 78/113/99 79/115/101 38/116/102 37/114/100
f 79/115/101 80/117/103 39/118/104 38/116/102
f 80/117/103 81/119/105 40/120/106 39/118/104
f 81/121/105 82/122/107 41/123/108 40/124/106
f 82/125/107 70/87/75 29/90/78 41/126/108
s 9
f 96/127/109 97/128/110 98/129/111 99/130/112
s 3
f 83/131/113 84/132/114 44/33/29 43/29/25
f 84/132/114 85/133/115 45/49/43 44/33/29
f 85/133/115 86/134/116 46/43/39 45/49/43
f 86/134/116 87/135/117 47/44/31 46/43/39
f 87/136/117 88/137/118 48/36/32 47/35/31
f 88/138/119 89/139/120 49/40/36 48/39/35
f 89/139/120 90/140/121 50/47/41 49/40/36
f 90/140/121 91/141/122 51/31/27 50/47/41
f 91/141/122 92/142/123 52/27/23 51/31/27
f 92/142/123 93/143/124 53/15/15 52/27/23
f 93/143/124 94/144/125 54/16/16 53/15/15
f 94/145/125 95/146/126 55/20/19 54/19/16
s 9
f 100/147/127 96/127/109 99/130/112 101/148/128
s 10
f 61/149/129 60/150/130 63/151/131 62/152/132
f 60/150/130 59/153/133 64/154/134 63/151/131
f 59/153/133 58/155/135 65/156/136 64/154/134
f 58/155/135 57/157/137 66/158/138 65/156/136
f 57/157/137 56/159/139 67/160/140 66/158/138
f 56/159/139 69/82/141 68/81/142 67/160/140
s 3
f 15/54/48 16/53/47 71/88/76 70/87/75
f 16/53/47 17/56/50 72/91/79 71/88/76
s 8
f 111/161/143 112/162/144 106/94/82 105/93/81
f 112/162/144 113/163/145 109/97/85 106/94/82
s 3
f 19/60/54 20/62/56 74/100/88 73/99/87
f 20/66/56 21/65/58 75/104/91 74/103/88
f 21/70/62 22/69/61 76/108/94 75/107/93
f 22/69/61 23/72/64 77/111/97 76/108/94
f 23/72/64 24/74/66 78/113/99 77/111/97
f 24/74/66 25/76/68 79/115/101 78/113/99
f 25/76/68 26/78/70 80/117/103 79/115/101
f 26/78/70 27/80/72 81/119/105 80/117/103
f 27/84/72 28/83/74 82/122/107 81/121/105
f 28/86/74 15/54/48 70/87/75 82/125/107
s 9
f 102/164/146 103/165/147 97/128/110 96/127/109
s 3
f 30/89/77 31/92/80 84/132/114 83/131/113
s 8
f 108/96/84 107/95/83 114/166/148 115/167/149
f 107/95/83 110/98/86 116/168/150 114/166/148
s 3
f 32/102/90 33/101/89 87/135/117 86/134/116
f 33/106/89 34/105/92 88/137/118 87/136/117
f 34/110/96 35/109/95 89/139/120 88/138/119
f 35/109/95 36/112/98 90/140/121 89/139/120
f 36/112/98 37/114/100 91/141/122 90/140/121
f 37/114/100 38/116/102 92/142/123 91/141/122
f 38/116/102 39/118/104 93/143/124 92/142/123
f 39/118/104 40/120/106 94/144/125 93/143/124
f 40/124/106 41/123/108 95/146/126 94/145/125
s 9
f 104/169/151 102/164/146 96/127/109 100/147/127
f 83/170/152 43/171/153 98/129/111 97/128/110
f 43/171/153 42/172/154 99/130/112 98/129/111
f 42/172/154 55/173/155 101/148/128 99/130/112
s 3
f 55/173/19 95/174/126 100/147/156 101/148/157
s 9
f 29/175/158 30/176/159 103/165/147 102/164/146
f 30/176/159 83/170/152 97/128/110 103/165/147
f 41/177/160 29/175/158 102/164/146 104/169/151
s 3
f 95/174/126 41/177/108 104/169/161 100/147/156
s 8
f 31/178/162 72/179/163 105/93/81 108/96/84
f 73/180/164 32/181/165 110/98/86 109/97/85
f 17/182/166 18/183/167 112/162/144 111/161/143
f 72/179/163 17/182/166 111/161/143 105/93/81
f 18/183/167 19/184/168 113/163/145 112/162/144
f 19/184/168 73/180/164 109/97/85 113/163/145
f 85/185/169 84/186/170 115/167/149 114/166/148
f 84/186/170 31/178/162 108/96/84 115/167/149
f 32/181/165 86/187/171 116/168/150 110/98/86
f 86/187/171 85/185/169 114/166/148 116/168/150
